<svg xmlns="http://www.w3.org/2000/svg" width="384pt" height="384pt" viewBox="0 0 384 384" version="1.1" class="iconadda">
<g>
<g id="Bell_free_icon_MK5GHAm-0"><path style="fill:none;stroke-width:15;stroke-linecap:round;stroke-linejoin:round;stroke:rgb(0%,0%,0%);stroke-opacity:1;stroke-miterlimit:10;" d="M -0.00116982 -0.00191241 C -0.00116982 -27.449911 -22.251236 -49.699978 -49.699235 -49.699978 C -77.147234 -49.699978 -99.402509 -27.449911 -99.402509 -0.00191241 " transform="matrix(0.749998,0,0,-0.749998,229.274315,341.100128)" />
</g><g id="Bell_free_icon_MK5GHAm-1"><path style="fill:none;stroke-width:15;stroke-linecap:round;stroke-linejoin:round;stroke:rgb(0%,0%,0%);stroke-opacity:1;stroke-miterlimit:10;" d="M 0.00152284 -0.00176594 C 0.00152284 -9.152835 -7.415166 -16.569524 -16.566235 -16.569524 C -25.717304 -16.569524 -33.133993 -9.152835 -33.133993 -0.00176594 C -33.133993 9.149303 -25.717304 16.565992 -16.566235 16.565992 C -7.415166 16.565992 0.00152284 9.149303 0.00152284 -0.00176594 Z M 0.00152284 -0.00176594 " transform="matrix(0.749998,0,0,-0.749998,204.424639,42.901019)" />
</g><g id="Bell_free_icon_MK5GHAm-2"><path style="fill:none;stroke-width:15;stroke-linecap:butt;stroke-linejoin:round;stroke:rgb(0%,0%,0%);stroke-opacity:1;stroke-miterlimit:10;" d="M 0.00130143 0.00112097 C -4.024752 7.32406 -6.128925 15.548042 -6.118509 23.902234 C -6.118509 51.350233 16.131558 73.600299 43.579557 73.600299 C 71.027555 73.600299 93.28283 51.350233 93.28283 23.902234 C 93.298455 15.516792 91.178657 7.261559 87.126562 -0.0822126 " transform="matrix(0.749998,0,0,-0.749998,159.311524,60.828966)" />
</g><g id="Bell_free_icon_MK5GHAm-3"><path style="fill:none;stroke-width:15;stroke-linecap:round;stroke-linejoin:round;stroke:rgb(0%,0%,0%);stroke-opacity:1;stroke-miterlimit:10;" d="M -0.00135882 -0.00166554 C 20.290368 12.477538 44.201898 19.639018 69.790516 19.550476 C 143.040735 19.295267 201.853411 -41.173664 201.853411 -114.418674 L 201.853411 -234.632575 C 201.853411 -252.205544 208.837807 -269.059761 221.264927 -281.486882 L 230.134746 -290.3567 L 230.134746 -290.361908 C 233.24413 -293.466084 234.988927 -297.679638 234.988927 -302.075485 L 234.988927 -344.914155 C 234.988927 -354.065224 227.572238 -361.481912 218.421169 -361.481912 L 198.723193 -361.481912 " transform="matrix(0.749998,0,0,-0.749998,140.008832,69.990938)" />
</g><g id="Bell_free_icon_MK5GHAm-4"><path style="fill:none;stroke-width:15;stroke-linecap:round;stroke-linejoin:round;stroke:rgb(0%,0%,0%);stroke-opacity:1;stroke-miterlimit:10;" d="M 0.00210371 -0.00191241 L -248.498639 -0.00191241 C -257.649708 -0.00191241 -265.066397 7.414776 -265.066397 16.565845 L -265.066397 59.404515 C -265.066397 63.800362 -263.3216 68.013916 -260.212216 71.118092 L -251.342397 79.98791 L -251.342397 79.993118 C -238.915277 92.420239 -231.936089 109.274456 -231.936089 126.847425 L -231.936089 248.49883 C -231.936089 285.410399 -216.847503 318.795915 -192.50368 342.827237 " transform="matrix(0.749998,0,0,-0.749998,266.549203,341.100128)" />
</g><g id="Bell_free_icon_MK5GHAm-5"><path style="fill:none;stroke-width:15;stroke-linecap:round;stroke-linejoin:round;stroke:rgb(0%,0%,0%);stroke-opacity:1;stroke-miterlimit:10;" d="M -0.00255586 0.00211896 L 326.284878 0.00211896 " transform="matrix(0.749998,0,0,-0.749998,69.642542,291.400027)" />
</g><g id="Bell_free_icon_MK5GHAm-6"><path style="fill:none;stroke-width:15;stroke-linecap:round;stroke-linejoin:round;stroke:rgb(0%,0%,0%);stroke-opacity:1;stroke-miterlimit:10;" d="M 0.00211896 -0.00116982 L 265.054994 -0.00116982 " transform="matrix(0.749998,0,0,-0.749998,92.599973,154.725685)" />
</g><g id="Bell_free_icon_MK5GHAm-7"><path style="fill:none;stroke-width:15;stroke-linecap:round;stroke-linejoin:round;stroke:rgb(0%,0%,0%);stroke-opacity:1;stroke-miterlimit:10;" d="M 0.00211896 0.00252284 L 265.054994 0.00252284 " transform="matrix(0.749998,0,0,-0.749998,92.599973,179.576111)" />
</g><g id="Bell_free_icon_MK5GHAm-8"><path style="fill:none;stroke-width:15;stroke-linecap:round;stroke-linejoin:round;stroke:rgb(0%,0%,0%);stroke-opacity:1;stroke-miterlimit:10;" d="M 0.0015034 0.000765002 L 33.137019 0.000765002 " transform="matrix(0.749998,0,0,-0.749998,325.034029,192.000574)" />
</g><g id="Bell_free_icon_MK5GHAm-9"><path style="fill:none;stroke-width:15;stroke-linecap:round;stroke-linejoin:round;stroke:rgb(0%,0%,0%);stroke-opacity:1;stroke-miterlimit:10;" d="M 0.00192673 0.0000113526 L 23.42908 23.427165 " transform="matrix(0.749998,0,0,-0.749998,316.248555,151.085946)" />
</g><g id="Bell_free_icon_MK5GHAm-10"><path style="fill:none;stroke-width:15;stroke-linecap:round;stroke-linejoin:round;stroke:rgb(0%,0%,0%);stroke-opacity:1;stroke-miterlimit:10;" d="M 0.00192673 0.00151865 L 23.42908 -23.425635 " transform="matrix(0.749998,0,0,-0.749998,316.248555,232.915201)" />
</g><g id="Bell_free_icon_MK5GHAm-11"><path style="fill:none;stroke-width:15;stroke-linecap:round;stroke-linejoin:round;stroke:rgb(0%,0%,0%);stroke-opacity:1;stroke-miterlimit:10;" d="M 0.0000266053 0.000765002 L -33.135489 0.000765002 " transform="matrix(0.749998,0,0,-0.749998,58.964824,192.000574)" />
</g><g id="Bell_free_icon_MK5GHAm-12"><path style="fill:none;stroke-width:15;stroke-linecap:round;stroke-linejoin:round;stroke:rgb(0%,0%,0%);stroke-opacity:1;stroke-miterlimit:10;" d="M -0.000396725 0.00151865 L -23.42755 -23.425635 " transform="matrix(0.749998,0,0,-0.749998,67.750298,232.915201)" />
</g><g id="Bell_free_icon_MK5GHAm-13"><path style="fill:none;stroke-width:15;stroke-linecap:round;stroke-linejoin:round;stroke:rgb(0%,0%,0%);stroke-opacity:1;stroke-miterlimit:10;" d="M -0.000396725 0.0000113526 L -23.42755 23.427165 " transform="matrix(0.749998,0,0,-0.749998,67.750298,151.085946)" />
</g></g>
</svg>