<svg xmlns="http://www.w3.org/2000/svg" width="384pt" height="384pt" viewBox="0 0 384 384" version="1.1" class="iconadda">
<g>
<g id="Compass_free_icon_19BQVgF-0"><path style="fill:none;stroke-width:15;stroke-linecap:butt;stroke-linejoin:miter;stroke:rgb(0%,0%,0%);stroke-opacity:1;stroke-miterlimit:22.9256;" d="M 433.598958 226.578125 L 404.182292 241 L 404.182292 271 L 433.604167 285.421875 C 421.135417 361.265625 361.265625 421.130208 285.416667 433.59375 L 271 404.182292 L 241 404.182292 L 226.583333 433.598958 C 150.734375 421.130208 90.864583 361.270833 78.395833 285.427083 L 107.817708 271 L 107.817708 241 L 78.395833 226.578125 C 90.864583 150.734375 150.734375 90.869792 226.583333 78.40625 L 241 107.817708 L 271 107.817708 L 285.416667 78.40625 C 361.265625 90.869792 421.135417 150.734375 433.604167 226.578125 Z M 433.598958 226.578125 " transform="matrix(0.75,0,0,0.75,0,0)" />
</g><g id="Compass_free_icon_19BQVgF-1"><path style="fill:none;stroke-width:15;stroke-linecap:butt;stroke-linejoin:miter;stroke:rgb(0%,0%,0%);stroke-opacity:1;stroke-miterlimit:22.9256;" d="M 165.84375 165.84375 L 293.125 218.875 L 346.15625 346.15625 L 218.875 293.125 Z M 218.875 293.125 L 242.739583 269.260417 M 269.255208 242.744792 L 293.119792 218.880208 " transform="matrix(0.75,0,0,0.75,0,0)" />
</g><g id="Compass_free_icon_19BQVgF-2"><path style="fill:none;stroke-width:15;stroke-linecap:butt;stroke-linejoin:miter;stroke:rgb(0%,0%,0%);stroke-opacity:1;stroke-miterlimit:22.9256;" d="M 242.739583 242.739583 C 250.0625 235.416667 261.932292 235.416667 269.255208 242.739583 C 276.578125 250.0625 276.578125 261.932292 269.255208 269.255208 C 261.932292 276.578125 250.0625 276.578125 242.739583 269.255208 C 235.416667 261.932292 235.416667 250.0625 242.739583 242.739583 Z M 242.739583 242.739583 " transform="matrix(0.75,0,0,0.75,0,0)" />
</g><g id="Compass_free_icon_19BQVgF-3"><path style="fill:none;stroke-width:15;stroke-linecap:butt;stroke-linejoin:miter;stroke:rgb(0%,0%,0%);stroke-opacity:1;stroke-miterlimit:22.9256;" d="M 474.5 256 C 474.5 376.671875 376.671875 474.5 256 474.5 C 135.328125 474.5 37.5 376.671875 37.5 256 C 37.5 135.328125 135.328125 37.5 256 37.5 C 376.671875 37.5 474.5 135.328125 474.5 256 " transform="matrix(0.75,0,0,0.75,0,0)" />
</g><g id="Compass_free_icon_19BQVgF-4"><path style="fill:none;stroke-width:15;stroke-linecap:butt;stroke-linejoin:miter;stroke:rgb(0%,0%,0%);stroke-opacity:1;stroke-miterlimit:22.9256;" d="M 302.161458 122.817708 L 302.161458 107.817708 M 332.161458 137.817708 L 332.161458 122.817708 M 256 152.817708 L 256 107.817708 M 152.817708 256 L 107.817708 256 M 359.177083 256 L 404.177083 256 M 256 359.182292 L 256 404.182292 M 437.098958 426.140625 C 478.890625 381.682292 504.5 321.833333 504.5 256 C 504.5 118.755208 393.244792 7.5 256 7.5 C 190.166667 7.5 130.317708 33.109375 85.859375 74.901042 M 74.901042 85.859375 C 33.109375 130.322917 7.5 190.166667 7.5 256 C 7.5 393.244792 118.755208 504.5 256 504.5 C 321.833333 504.5 381.677083 478.890625 426.140625 437.098958 " transform="matrix(0.75,0,0,0.75,0,0)" />
</g></g>
</svg>