<svg xmlns="http://www.w3.org/2000/svg" width="384pt" height="384pt" viewBox="0 0 384 384" version="1.1" class="iconadda">
<g>
<g id="Navigation_free_icon_5_LXvecCO-0"><path style=" stroke:none;fill-rule:nonzero;fill:#76e2f9;fill-opacity:1;" d="M 192 0 C 86.476562 0 0 86.476562 0 192 C 0 297.523438 86.476562 384 192 384 C 297.523438 384 384 297.523438 384 192 C 384 86.476562 297.523438 0 192 0 Z M 192 0 " />
</g><g id="Navigation_free_icon_5_LXvecCO-1"><path style=" stroke:none;fill-rule:nonzero;fill:#25d8f9;fill-opacity:1;" d="M 384 192 C 384 297.523438 297.523438 384 192 384 L 192 0 C 297.523438 0 384 86.476562 384 192 Z M 384 192 " />
</g><g id="Navigation_free_icon_5_LXvecCO-2"><path style=" stroke:none;fill-rule:nonzero;fill:#faecd8;fill-opacity:1;" d="M 192 54.296875 L 76.796875 284.703125 L 192 227.101562 L 307.203125 284.703125 Z M 192 54.296875 " />
</g><g id="Navigation_free_icon_5_LXvecCO-3"><path style=" stroke:none;fill-rule:nonzero;fill:#f4d6a0;fill-opacity:1;" d="M 307.203125 284.703125 L 192 227.101562 L 192 54.296875 Z M 307.203125 284.703125 " />
</g></g>
</svg>