<svg xmlns="http://www.w3.org/2000/svg" width="384pt" height="384pt" viewBox="0 0 384 384" version="1.1" class="iconadda">
<g>
<g id="Location_free_icon_bAWgwVY-0"><path style=" stroke:none;fill-rule:nonzero;fill:#000001;fill-opacity:1;" d="M 289.03125 265.265625 C 287.0625 265.265625 285.238281 264.226562 284.230469 262.53125 C 283.222656 260.839844 283.179688 258.738281 284.121094 257.007812 C 307.101562 214.664062 318.75 174.601562 318.75 137.9375 C 318.75 68.046875 261.890625 11.183594 191.996094 11.183594 C 183.523438 11.183594 175.054688 12.023438 166.824219 13.683594 L 166.828125 13.683594 C 163.824219 14.242188 160.925781 12.285156 160.320312 9.289062 C 159.71875 6.292969 161.632812 3.363281 164.621094 2.71875 C 173.636719 0.910156 182.804688 0 192 0 C 268.058594 0 329.9375 61.878906 329.9375 137.9375 C 329.9375 176.484375 317.832031 218.339844 293.953125 262.339844 C 292.972656 264.144531 291.085938 265.269531 289.03125 265.265625 Z M 192 384 C 186.066406 384 180.511719 381.660156 176.363281 377.414062 C 160.410156 361.09375 129.683594 327.359375 103.152344 284.800781 C 70.582031 232.558594 54.066406 183.148438 54.066406 137.9375 C 54.066406 82.375 87.132812 32.488281 138.3125 10.839844 L 138.308594 10.84375 C 141.152344 9.636719 144.433594 10.96875 145.636719 13.8125 C 146.839844 16.660156 145.511719 19.941406 142.664062 21.144531 C 95.636719 41.035156 65.246094 86.878906 65.246094 137.9375 C 65.246094 239.824219 156.417969 341.011719 184.359375 369.597656 C 186.386719 371.671875 189.101562 372.816406 192 372.816406 C 194.898438 372.816406 197.613281 371.675781 199.640625 369.597656 C 215.167969 353.714844 245.078125 320.890625 270.976562 279.5 L 270.976562 279.496094 C 272.632812 276.921875 276.050781 276.15625 278.648438 277.78125 C 281.246094 279.40625 282.050781 282.816406 280.457031 285.429688 C 254 327.710938 223.476562 361.210938 207.636719 377.414062 C 203.488281 381.660156 197.933594 384 192 384 Z M 192 384 " />
</g><g id="Location_free_icon_bAWgwVY-1"><path style=" stroke:none;fill-rule:nonzero;fill:#000001;fill-opacity:1;" d="M 192 200.949219 C 177.738281 200.949219 164.238281 196.359375 152.964844 187.679688 C 151.789062 186.773438 151.023438 185.441406 150.832031 183.96875 C 150.640625 182.496094 151.042969 181.011719 151.945312 179.835938 C 152.851562 178.660156 154.1875 177.894531 155.65625 177.703125 C 157.128906 177.511719 158.613281 177.910156 159.789062 178.816406 C 169.089844 185.976562 180.226562 189.761719 192 189.761719 C 221.144531 189.761719 244.851562 166.050781 244.851562 136.910156 C 244.851562 107.769531 221.144531 84.058594 192 84.058594 C 162.855469 84.058594 139.148438 107.769531 139.148438 136.910156 C 139.148438 145.054688 140.949219 152.859375 144.5 160.113281 L 144.5 160.117188 C 145.820312 162.882812 144.664062 166.195312 141.910156 167.542969 C 139.15625 168.890625 135.832031 167.773438 134.453125 165.035156 C 130.144531 156.234375 127.960938 146.773438 127.960938 136.910156 C 127.960938 101.601562 156.6875 72.875 191.996094 72.875 C 227.304688 72.875 256.03125 101.601562 256.03125 136.910156 C 256.035156 172.222656 227.308594 200.949219 192 200.949219 Z M 192 200.949219 " />
</g></g>
</svg>