<svg xmlns="http://www.w3.org/2000/svg" width="384pt" height="384pt" viewBox="0 0 384 384" version="1.1" class="iconadda">
<g>
<g id="Qibla_free_icon_C9rvKpS-0"><path style=" stroke:none;fill-rule:nonzero;fill:#7dd5f5;fill-opacity:1;" d="M 345.601562 153.601562 C 345.601562 68.769531 276.832031 0 192 0 C 107.167969 0 38.398438 68.769531 38.398438 153.601562 C 38.398438 192.945312 53.195312 228.824219 77.523438 256 L 182.457031 379.734375 C 187.546875 385.421875 196.449219 385.421875 201.539062 379.734375 L 306.472656 256 C 330.800781 228.824219 345.601562 192.941406 345.601562 153.601562 Z M 345.601562 153.601562 " />
</g><g id="Qibla_free_icon_C9rvKpS-1"><path style=" stroke:none;fill-rule:nonzero;fill:#f2f2fc;fill-opacity:1;" d="M 307.199219 153.601562 C 307.199219 217.222656 255.625 268.800781 192 268.800781 C 128.375 268.800781 76.800781 217.222656 76.800781 153.601562 C 76.800781 89.976562 128.375 38.398438 192 38.398438 C 255.625 38.398438 307.199219 89.976562 307.199219 153.601562 " />
</g><g id="Qibla_free_icon_C9rvKpS-2"><path style=" stroke:none;fill-rule:nonzero;fill:#454554;fill-opacity:1;" d="M 256 192 L 256 140.800781 L 247.113281 128 L 256 115.199219 L 256 95.5625 C 256 88.734375 250.464844 83.199219 243.636719 83.199219 L 140.359375 83.199219 C 133.53125 83.199219 127.996094 88.734375 127.996094 95.5625 L 128 115.199219 L 136.546875 128 L 128 140.800781 L 128 192 L 192 208.949219 Z M 256 192 " />
</g><g id="Qibla_free_icon_C9rvKpS-3"><path style=" stroke:none;fill-rule:nonzero;fill:#6ab9d0;fill-opacity:1;" d="M 192 0 C 189.015625 0 186.054688 0.09375 183.113281 0.261719 C 263.808594 4.867188 327.828125 71.753906 327.828125 153.601562 C 327.828125 192.945312 313.03125 228.824219 288.703125 256 L 183.769531 379.734375 C 183.558594 379.96875 183.335938 380.175781 183.113281 380.390625 C 188.28125 385.398438 196.660156 385.1875 201.539062 379.734375 L 306.472656 256 C 330.800781 228.824219 345.601562 192.941406 345.601562 153.601562 C 345.601562 68.769531 276.832031 0 192 0 Z M 192 0 " />
</g><g id="Qibla_free_icon_C9rvKpS-4"><path style=" stroke:none;fill-rule:nonzero;fill:#e2d8fc;fill-opacity:1;" d="M 192 38.398438 C 189.011719 38.398438 186.046875 38.511719 183.113281 38.738281 C 242.585938 43.273438 289.429688 92.96875 289.429688 153.601562 C 289.429688 214.234375 242.585938 263.925781 183.113281 268.464844 C 186.046875 268.6875 189.007812 268.800781 192 268.800781 C 255.625 268.800781 307.199219 217.222656 307.199219 153.601562 C 307.199219 89.976562 255.625 38.398438 192 38.398438 Z M 192 38.398438 " />
</g><g id="Qibla_free_icon_C9rvKpS-5"><path style=" stroke:none;fill-rule:nonzero;fill:#3d3d4b;fill-opacity:1;" d="M 238.230469 95.5625 L 238.230469 196.707031 L 256 192 L 256 140.800781 L 247.113281 128 L 256 115.199219 L 256 95.5625 C 256 88.734375 250.464844 83.199219 243.636719 83.199219 L 225.867188 83.199219 C 232.695312 83.199219 238.230469 88.734375 238.230469 95.5625 Z M 238.230469 95.5625 " />
</g><g id="Qibla_free_icon_C9rvKpS-6"><path style=" stroke:none;fill-rule:nonzero;fill:#525263;fill-opacity:1;" d="M 238.230469 192 L 128 192 L 128 217.820312 C 128 219.457031 128.648438 221.03125 129.808594 222.1875 C 130.96875 223.347656 132.539062 224 134.179688 224 L 153.597656 224 L 169.597656 216.601562 L 185.597656 224 L 249.816406 224 C 251.457031 224 253.03125 223.347656 254.1875 222.1875 C 255.347656 221.03125 256 219.457031 256 217.820312 L 256 209.773438 Z M 238.230469 192 " />
</g><g id="Qibla_free_icon_C9rvKpS-7"><path style=" stroke:none;fill-rule:nonzero;fill:#fede46;fill-opacity:1;" d="M 185.601562 224 L 153.601562 224 L 153.601562 182.199219 C 153.601562 180.542969 154.941406 179.199219 156.601562 179.199219 L 182.601562 179.199219 C 183.394531 179.199219 184.160156 179.515625 184.722656 180.078125 C 185.285156 180.640625 185.601562 181.40625 185.601562 182.199219 Z M 185.601562 224 " />
</g><g id="Qibla_free_icon_C9rvKpS-8"><path style=" stroke:none;fill-rule:nonzero;fill:#feb54d;fill-opacity:1;" d="M 182.507812 179.199219 L 164.738281 179.199219 C 166.445312 179.199219 167.828125 180.582031 167.828125 182.289062 L 167.828125 224 L 185.597656 224 L 185.597656 182.289062 L 185.601562 182.289062 C 185.601562 180.582031 184.214844 179.199219 182.507812 179.199219 Z M 182.507812 179.199219 " />
</g><g id="Qibla_free_icon_C9rvKpS-9"><path style=" stroke:none;fill-rule:nonzero;fill:#454554;fill-opacity:1;" d="M 238.230469 192 L 238.230469 217.820312 C 238.230469 219.457031 237.578125 221.03125 236.417969 222.1875 C 235.261719 223.347656 233.6875 224 232.046875 224 L 249.820312 224 C 251.457031 224 253.03125 223.347656 254.191406 222.1875 C 255.347656 221.03125 256 219.457031 256 217.820312 L 256 192 Z M 238.230469 192 " />
</g><g id="Qibla_free_icon_C9rvKpS-10"><path style=" stroke:none;fill-rule:nonzero;fill:#fede46;fill-opacity:1;" d="M 128 115.199219 L 256 115.199219 L 256 140.800781 L 128 140.800781 Z M 128 115.199219 " />
</g><g id="Qibla_free_icon_C9rvKpS-11"><path style=" stroke:none;fill-rule:nonzero;fill:#feb54d;fill-opacity:1;" d="M 238.230469 115.199219 L 256 115.199219 L 256 140.800781 L 238.230469 140.800781 Z M 238.230469 115.199219 " />
</g></g>
</svg>