<svg xmlns="http://www.w3.org/2000/svg" width="384pt" height="384pt" viewBox="0 0 384 384" version="1.1" class="iconadda">
<g>
<g id="Sun_free_icon_dkqnydD-0"><path style=" stroke:none;fill-rule:nonzero;fill:#000001;fill-opacity:1;" d="M 192 71.578125 C 172.734375 71.578125 153.5625 76.246094 136.5625 85.078125 L 136.566406 85.078125 C 133.691406 86.617188 132.589844 90.179688 134.089844 93.070312 C 135.59375 95.964844 139.140625 97.109375 142.050781 95.640625 C 157.582031 87.574219 174.386719 83.480469 192 83.480469 C 251.835938 83.480469 300.515625 132.160156 300.515625 191.996094 C 300.515625 226.453125 283.894531 259.199219 256.050781 279.59375 L 256.054688 279.597656 C 254.765625 280.527344 253.898438 281.929688 253.652344 283.496094 C 253.402344 285.0625 253.789062 286.667969 254.726562 287.945312 C 255.664062 289.226562 257.074219 290.078125 258.644531 290.316406 C 260.214844 290.550781 261.8125 290.148438 263.085938 289.199219 C 278.042969 278.242188 290.449219 263.777344 298.964844 247.359375 C 307.769531 230.386719 312.421875 211.246094 312.421875 192 C 312.421875 125.597656 258.402344 71.578125 192 71.578125 Z M 245.238281 293.53125 C 244.578125 292.097656 243.375 290.984375 241.894531 290.4375 C 240.410156 289.890625 238.773438 289.953125 237.339844 290.617188 C 223.074219 297.1875 207.816406 300.519531 192 300.519531 C 132.164062 300.519531 83.484375 251.839844 83.484375 192.003906 C 83.484375 158.980469 98.261719 128.148438 124.03125 107.414062 L 124.03125 107.410156 C 126.539062 105.335938 126.917969 101.628906 124.875 99.09375 C 122.835938 96.554688 119.132812 96.128906 116.570312 98.136719 C 87.980469 121.140625 71.582031 155.351562 71.582031 192 C 71.582031 258.398438 125.601562 312.421875 192.003906 312.421875 C 209.554688 312.421875 226.484375 308.722656 242.324219 301.425781 L 242.320312 301.425781 C 245.304688 300.050781 246.609375 296.515625 245.238281 293.53125 Z M 192 0 C 188.714844 0 186.046875 2.664062 186.046875 5.953125 L 186.046875 47.332031 L 186.046875 47.328125 C 186.046875 50.617188 188.714844 53.28125 192 53.28125 C 195.285156 53.28125 197.953125 50.617188 197.953125 47.328125 L 197.953125 5.953125 C 197.953125 2.664062 195.285156 0 192 0 Z M 47.328125 186.046875 L 5.953125 186.046875 C 2.691406 186.085938 0.0664062 188.738281 0.0664062 192 C 0.0664062 195.261719 2.691406 197.914062 5.953125 197.953125 L 47.332031 197.953125 L 47.328125 197.953125 C 50.617188 197.953125 53.28125 195.285156 53.28125 192 C 53.28125 188.710938 50.617188 186.046875 47.328125 186.046875 Z M 93.910156 85.496094 L 64.652344 56.234375 C 62.324219 53.941406 58.578125 53.953125 56.265625 56.265625 C 53.953125 58.578125 53.941406 62.324219 56.234375 64.652344 L 85.492188 93.910156 L 85.496094 93.910156 C 86.609375 95.027344 88.125 95.65625 89.703125 95.652344 C 92.109375 95.652344 94.277344 94.203125 95.199219 91.980469 C 96.121094 89.757812 95.613281 87.195312 93.910156 85.496094 Z M 141.085938 56.453125 L 124.957031 18.347656 C 123.648438 15.367188 120.183594 13.988281 117.1875 15.257812 C 114.1875 16.527344 112.765625 19.972656 113.996094 22.988281 L 130.125 61.09375 C 131.058594 63.296875 133.21875 64.726562 135.609375 64.726562 C 137.605469 64.726562 139.464844 63.722656 140.566406 62.058594 C 141.667969 60.394531 141.863281 58.289062 141.085938 56.453125 Z M 61.589844 129.082031 L 23.613281 112.648438 L 23.617188 112.648438 C 22.164062 112 20.515625 111.960938 19.03125 112.539062 C 17.550781 113.113281 16.363281 114.261719 15.730469 115.71875 C 15.097656 117.179688 15.078125 118.832031 15.671875 120.304688 C 16.265625 121.78125 17.425781 122.957031 18.890625 123.570312 L 56.867188 140.003906 L 56.863281 140.003906 C 57.609375 140.328125 58.414062 140.496094 59.226562 140.496094 C 62.046875 140.496094 64.480469 138.511719 65.050781 135.75 C 65.625 132.988281 64.179688 130.203125 61.589844 129.082031 Z M 378.046875 186.046875 L 336.667969 186.046875 L 336.671875 186.046875 C 333.382812 186.046875 330.71875 188.710938 330.71875 192 C 330.71875 195.285156 333.382812 197.949219 336.671875 197.949219 L 378.050781 197.949219 L 378.046875 197.949219 C 381.335938 197.949219 384 195.285156 384 192 C 384 188.710938 381.335938 186.046875 378.046875 186.046875 Z M 327.765625 56.234375 C 326.648438 55.121094 325.136719 54.492188 323.558594 54.492188 C 321.976562 54.492188 320.464844 55.121094 319.347656 56.234375 L 290.089844 85.492188 L 290.089844 85.496094 C 288.972656 86.609375 288.347656 88.125 288.347656 89.703125 C 288.34375 91.28125 288.972656 92.792969 290.089844 93.910156 C 291.203125 95.027344 292.71875 95.65625 294.296875 95.652344 C 295.820312 95.652344 297.34375 95.070312 298.507812 93.910156 L 327.765625 64.652344 C 330.089844 62.328125 330.089844 58.558594 327.765625 56.234375 Z M 266.84375 15.1875 C 263.816406 13.90625 260.324219 15.320312 259.042969 18.347656 L 242.914062 56.453125 C 242.277344 57.910156 242.246094 59.5625 242.835938 61.042969 C 243.425781 62.519531 244.582031 63.703125 246.046875 64.320312 C 247.511719 64.941406 249.164062 64.949219 250.632812 64.34375 C 252.105469 63.738281 253.273438 62.566406 253.875 61.09375 L 270.003906 22.988281 C 270.621094 21.535156 270.632812 19.898438 270.039062 18.433594 C 269.445312 16.972656 268.296875 15.804688 266.84375 15.1875 Z M 368.207031 115.746094 C 366.902344 112.730469 363.398438 111.34375 360.382812 112.648438 L 322.40625 129.082031 L 322.410156 129.082031 C 320.960938 129.707031 319.820312 130.882812 319.238281 132.351562 C 318.65625 133.820312 318.683594 135.457031 319.3125 136.90625 C 320.253906 139.085938 322.402344 140.496094 324.777344 140.496094 C 325.585938 140.496094 326.390625 140.328125 327.136719 140.003906 L 365.113281 123.570312 L 365.109375 123.570312 C 366.558594 122.945312 367.699219 121.765625 368.28125 120.300781 C 368.863281 118.832031 368.835938 117.195312 368.207031 115.746094 Z M 192 330.71875 C 188.714844 330.71875 186.046875 333.382812 186.046875 336.671875 L 186.046875 378.050781 L 186.046875 378.046875 C 186.046875 381.335938 188.714844 384 192 384 C 195.285156 384 197.953125 381.335938 197.953125 378.046875 L 197.953125 336.667969 L 197.953125 336.671875 C 197.953125 333.382812 195.285156 330.71875 192 330.71875 Z M 93.910156 290.089844 C 92.792969 288.972656 91.28125 288.347656 89.703125 288.347656 C 88.125 288.347656 86.609375 288.972656 85.496094 290.089844 L 56.238281 319.347656 L 56.234375 319.347656 C 53.910156 321.671875 53.910156 325.441406 56.234375 327.765625 C 58.558594 330.089844 62.328125 330.089844 64.652344 327.765625 L 93.910156 298.507812 L 93.910156 298.503906 C 96.234375 296.179688 96.234375 292.414062 93.910156 290.089844 Z M 137.925781 319.746094 C 134.898438 318.464844 131.40625 319.878906 130.125 322.90625 L 113.996094 361.011719 C 113.371094 362.46875 113.351562 364.113281 113.941406 365.582031 C 114.53125 367.054688 115.683594 368.226562 117.140625 368.84375 C 118.601562 369.460938 120.246094 369.472656 121.714844 368.875 C 123.179688 368.273438 124.347656 367.113281 124.957031 365.652344 L 141.085938 327.546875 C 142.367188 324.519531 140.953125 321.027344 137.925781 319.746094 Z M 64.691406 247.09375 C 64.0625 245.644531 62.886719 244.503906 61.417969 243.921875 C 59.953125 243.34375 58.3125 243.367188 56.863281 243.996094 L 18.886719 260.429688 L 18.890625 260.429688 C 17.425781 261.042969 16.265625 262.21875 15.671875 263.695312 C 15.078125 265.167969 15.097656 266.820312 15.730469 268.28125 C 16.363281 269.738281 17.550781 270.886719 19.03125 271.460938 C 20.515625 272.039062 22.164062 272 23.617188 271.351562 L 61.59375 254.917969 L 61.589844 254.917969 C 63.039062 254.292969 64.179688 253.113281 64.761719 251.648438 C 65.34375 250.179688 65.316406 248.542969 64.691406 247.09375 Z M 327.765625 319.347656 L 298.507812 290.089844 C 296.175781 287.792969 292.433594 287.808594 290.121094 290.117188 C 287.808594 292.429688 287.792969 296.175781 290.089844 298.503906 L 319.347656 327.761719 L 319.347656 327.765625 C 320.464844 328.882812 321.976562 329.507812 323.558594 329.507812 C 325.964844 329.507812 328.132812 328.058594 329.054688 325.832031 C 329.976562 323.609375 329.464844 321.050781 327.765625 319.347656 Z M 270.003906 361.011719 L 253.875 322.90625 C 252.59375 319.878906 249.101562 318.464844 246.074219 319.746094 C 243.046875 321.027344 241.632812 324.519531 242.914062 327.546875 L 259.042969 365.652344 C 259.976562 367.851562 262.136719 369.285156 264.527344 369.285156 C 266.523438 369.28125 268.382812 368.28125 269.488281 366.617188 C 270.589844 364.953125 270.78125 362.847656 270.003906 361.011719 Z M 365.109375 260.429688 L 327.132812 243.996094 L 327.136719 243.996094 C 325.6875 243.367188 324.046875 243.34375 322.582031 243.921875 C 321.113281 244.503906 319.9375 245.644531 319.3125 247.09375 C 318.003906 250.109375 319.390625 253.613281 322.410156 254.917969 L 360.386719 271.351562 L 360.382812 271.351562 C 361.128906 271.675781 361.929688 271.84375 362.742188 271.84375 C 365.042969 271.84375 367.234375 270.5 368.207031 268.253906 C 368.835938 266.804688 368.859375 265.167969 368.28125 263.699219 C 367.699219 262.230469 366.558594 261.054688 365.109375 260.429688 Z M 365.109375 260.429688 " />
</g></g>
</svg>