<svg xmlns="http://www.w3.org/2000/svg" width="384pt" height="384pt" viewBox="0 0 384 384" version="1.1" class="iconadda">
<g>
<g id="Tasbih_free_icon_1_0h4qMRT-0"><path style="fill:none;stroke-width:15;stroke-linecap:round;stroke-linejoin:round;stroke:rgb(0%,0%,0%);stroke-opacity:1;stroke-miterlimit:10;" d="M -0.00115058 -0.00178518 C -0.00115058 -15.605998 -12.65223 -28.25187 -28.251235 -28.25187 C -43.855448 -28.25187 -56.506528 -15.605998 -56.506528 -0.00178518 C -56.506528 15.602428 -43.855448 28.248299 -28.251235 28.248299 C -12.647022 28.253508 -0.00115058 15.602428 -0.00115058 -0.00178518 Z M -0.00115058 -0.00178518 " transform="matrix(0.749998,0,0,-0.749998,213.188363,26.815067)" />
</g><g id="Tasbih_free_icon_1_0h4qMRT-1"><path style="fill:none;stroke-width:15;stroke-linecap:round;stroke-linejoin:round;stroke:rgb(0%,0%,0%);stroke-opacity:1;stroke-miterlimit:10;" d="M 0.00254042 -0.000513121 C 0.00254042 -15.292225 -12.39333 -27.688096 -27.685042 -27.688096 C -42.976755 -27.688096 -55.372625 -15.292225 -55.372625 -0.000513121 C -55.372625 15.291199 -42.976755 27.68707 -27.685042 27.68707 C -12.398538 27.692278 0.00254042 15.291199 0.00254042 -0.000513121 Z M 0.00254042 -0.000513121 " transform="matrix(0.749998,0,0,-0.749998,83.345751,115.398053)" />
</g><g id="Tasbih_free_icon_1_0h4qMRT-2"><path style="fill:none;stroke-width:15;stroke-linecap:round;stroke-linejoin:round;stroke:rgb(0%,0%,0%);stroke-opacity:1;stroke-miterlimit:10;" d="M 0.00124195 -0.00138211 C 0.00124195 -15.293094 -12.394628 -27.688965 -27.686341 -27.688965 C -42.978053 -27.688965 -55.373924 -15.293094 -55.373924 -0.00138211 C -55.373924 15.29033 -42.978053 27.686201 -27.686341 27.686201 C -12.394628 27.691409 0.00124195 15.29033 0.00124195 -0.00138211 Z M 0.00124195 -0.00138211 " transform="matrix(0.749998,0,0,-0.749998,133.92485,51.143495)" />
</g><g id="Tasbih_free_icon_1_0h4qMRT-3"><path style="fill:none;stroke-width:15;stroke-linecap:round;stroke-linejoin:round;stroke:rgb(0%,0%,0%);stroke-opacity:1;stroke-miterlimit:10;" d="M -0.00202609 0.000899079 C -0.00202609 -15.290813 -12.397896 -27.686684 -27.689609 -27.686684 C -42.981321 -27.686684 -55.377192 -15.290813 -55.377192 0.000899079 C -55.377192 15.292611 -42.981321 27.688482 -27.689609 27.688482 C -12.397896 27.688482 -0.00202609 15.292611 -0.00202609 0.000899079 Z M -0.00202609 0.000899079 " transform="matrix(0.749998,0,0,-0.749998,171.231988,32.860049)" />
</g><g id="Tasbih_free_icon_1_0h4qMRT-4"><path style="fill:none;stroke-width:15;stroke-linecap:round;stroke-linejoin:round;stroke:rgb(0%,0%,0%);stroke-opacity:1;stroke-miterlimit:10;" d="M 0.000516663 -0.000259285 C 0.000516663 -15.20343 12.32347 -27.531592 27.531849 -27.531592 C 42.735019 -27.531592 55.057973 -15.20343 55.057973 -0.000259285 C 55.057973 15.202911 42.729811 27.531073 27.526641 27.531073 C 12.32347 27.531073 0.000516663 15.202911 0.000516663 -0.000259285 Z M 0.000516663 -0.000259285 " transform="matrix(0.749998,0,0,-0.749998,307.448831,156.265431)" />
</g><g id="Tasbih_free_icon_1_0h4qMRT-5"><path style="fill:none;stroke-width:15;stroke-linecap:round;stroke-linejoin:round;stroke:rgb(0%,0%,0%);stroke-opacity:1;stroke-miterlimit:10;" d="M 0.00101334 -0.000259285 C 0.00101334 -15.20343 -12.32194 -27.531592 -27.530319 -27.531592 C -42.733489 -27.531592 -55.056443 -15.20343 -55.056443 -0.000259285 C -55.056443 15.202911 -42.728281 27.531073 -27.525111 27.531073 C -12.327148 27.531073 0.00101334 15.202911 0.00101334 -0.000259285 Z M 0.00101334 -0.000259285 " transform="matrix(0.749998,0,0,-0.749998,76.550021,156.265431)" />
</g><g id="Tasbih_free_icon_1_0h4qMRT-6"><path style="fill:none;stroke-width:15;stroke-linecap:round;stroke-linejoin:round;stroke:rgb(0%,0%,0%);stroke-opacity:1;stroke-miterlimit:10;" d="M -0.00101042 -0.000513121 C -0.00101042 -15.292225 12.39486 -27.688096 27.686572 -27.688096 C 42.978285 -27.688096 55.374155 -15.292225 55.374155 -0.000513121 C 55.374155 15.291199 42.978285 27.68707 27.686572 27.68707 C 12.39486 27.692278 -0.00101042 15.291199 -0.00101042 -0.000513121 Z M -0.00101042 -0.000513121 " transform="matrix(0.749998,0,0,-0.749998,300.653102,115.398053)" />
</g><g id="Tasbih_free_icon_1_0h4qMRT-7"><path style="fill:none;stroke-width:15;stroke-linecap:round;stroke-linejoin:round;stroke:rgb(0%,0%,0%);stroke-opacity:1;stroke-miterlimit:10;" d="M 0.000288059 -0.00138211 C 0.000288059 -15.293094 12.396158 -27.688965 27.687871 -27.688965 C 42.979583 -27.688965 55.375454 -15.293094 55.375454 -0.00138211 C 55.375454 15.29033 42.979583 27.686201 27.687871 27.686201 C 12.396158 27.691409 0.000288059 15.29033 0.000288059 -0.00138211 Z M 0.000288059 -0.00138211 " transform="matrix(0.749998,0,0,-0.749998,250.074003,51.143495)" />
</g><g id="Tasbih_free_icon_1_0h4qMRT-8"><path style="fill:none;stroke-width:15;stroke-linecap:round;stroke-linejoin:round;stroke:rgb(0%,0%,0%);stroke-opacity:1;stroke-miterlimit:10;" d="M -0.00165226 0.000899079 C -0.00165226 -15.290813 12.394218 -27.686684 27.68593 -27.686684 C 42.977643 -27.686684 55.373513 -15.290813 55.373513 0.000899079 C 55.373513 15.292611 42.977643 27.688482 27.68593 27.688482 C 12.399426 27.688482 -0.00165226 15.292611 -0.00165226 0.000899079 Z M -0.00165226 0.000899079 " transform="matrix(0.749998,0,0,-0.749998,212.766864,32.860049)" />
</g><g id="Tasbih_free_icon_1_0h4qMRT-9"><path style="fill:none;stroke-width:15;stroke-linecap:round;stroke-linejoin:round;stroke:rgb(0%,0%,0%);stroke-opacity:1;stroke-miterlimit:10;" d="M 0.00254042 -0.00000544919 C 0.00254042 15.291707 -12.39333 27.687577 -27.685042 27.687577 C -42.976755 27.687577 -55.372625 15.291707 -55.372625 -0.00000544919 C -55.372625 -15.291718 -42.976755 -27.687588 -27.685042 -27.687588 C -12.398538 -27.687588 0.00254042 -15.291718 0.00254042 -0.00000544919 Z M 0.00254042 -0.00000544919 " transform="matrix(0.749998,0,0,-0.749998,83.345751,197.132808)" />
</g><g id="Tasbih_free_icon_1_0h4qMRT-10"><path style="fill:none;stroke-width:15;stroke-linecap:round;stroke-linejoin:round;stroke:rgb(0%,0%,0%);stroke-opacity:1;stroke-miterlimit:10;" d="M 0.00190996 0.0018485 C 0.00190996 15.293561 -12.39396 27.689431 -27.685673 27.689431 C -42.977385 27.689431 -55.373256 15.293561 -55.373256 0.0018485 C -55.373256 -15.289864 -42.977385 -27.685734 -27.685673 -27.685734 C -12.399169 -27.690943 0.00190996 -15.295072 0.00190996 0.0018485 Z M 0.00190996 0.0018485 " transform="matrix(0.749998,0,0,-0.749998,102.889193,233.790449)" />
</g><g id="Tasbih_free_icon_1_0h4qMRT-11"><path style="fill:none;stroke-width:15;stroke-linecap:round;stroke-linejoin:round;stroke:rgb(0%,0%,0%);stroke-opacity:1;stroke-miterlimit:10;" d="M 0.00124195 -0.000136461 C 0.00124195 15.291576 -12.394628 27.687446 -27.686341 27.687446 C -42.978053 27.687446 -55.373924 15.291576 -55.373924 -0.000136461 C -55.373924 -15.291849 -42.978053 -27.687719 -27.686341 -27.687719 C -12.394628 -27.687719 0.00124195 -15.291849 0.00124195 -0.000136461 Z M 0.00124195 -0.000136461 " transform="matrix(0.749998,0,0,-0.749998,133.92485,261.386616)" />
</g><g id="Tasbih_free_icon_1_0h4qMRT-12"><path style="fill:none;stroke-width:15;stroke-linecap:round;stroke-linejoin:round;stroke:rgb(0%,0%,0%);stroke-opacity:1;stroke-miterlimit:10;" d="M -0.00202609 -0.00141765 C -0.00202609 15.290295 -12.397896 27.686165 -27.689609 27.686165 C -42.981321 27.686165 -55.377192 15.290295 -55.377192 -0.00141765 C -55.377192 -15.29313 -42.981321 -27.689 -27.689609 -27.689 C -12.397896 -27.689 -0.00202609 -15.29313 -0.00202609 -0.00141765 Z M -0.00202609 -0.00141765 " transform="matrix(0.749998,0,0,-0.749998,171.231988,279.670812)" />
</g><g id="Tasbih_free_icon_1_0h4qMRT-13"><path style="fill:none;stroke-width:15;stroke-linecap:round;stroke-linejoin:round;stroke:rgb(0%,0%,0%);stroke-opacity:1;stroke-miterlimit:10;" d="M -0.00101042 -0.00000544919 C -0.00101042 15.291707 12.39486 27.687577 27.686572 27.687577 C 42.978285 27.687577 55.374155 15.291707 55.374155 -0.00000544919 C 55.374155 -15.291718 42.978285 -27.687588 27.686572 -27.687588 C 12.39486 -27.687588 -0.00101042 -15.291718 -0.00101042 -0.00000544919 Z M -0.00101042 -0.00000544919 " transform="matrix(0.749998,0,0,-0.749998,300.653102,197.132808)" />
</g><g id="Tasbih_free_icon_1_0h4qMRT-14"><path style="fill:none;stroke-width:15;stroke-linecap:round;stroke-linejoin:round;stroke:rgb(0%,0%,0%);stroke-opacity:1;stroke-miterlimit:10;" d="M 0.000604092 0.000128482 C 1.458942 -0.994666 2.823529 -2.130086 4.073533 -3.38009 C 15.089191 -14.395748 15.089191 -32.255176 4.073533 -43.270834 C -6.942125 -54.286492 -24.801553 -54.286492 -35.817211 -43.270834 C -46.832869 -32.255176 -46.832869 -14.395748 -35.817211 -3.38009 " transform="matrix(0.749998,0,0,-0.749998,203.901891,268.093846)" />
</g><g id="Tasbih_free_icon_1_0h4qMRT-15"><path style="fill:none;stroke-width:15;stroke-linecap:round;stroke-linejoin:round;stroke:rgb(0%,0%,0%);stroke-opacity:1;stroke-miterlimit:10;" d="M -0.00197994 -0.00195243 C 1.675108 0.315757 3.40428 0.482424 5.175119 0.482424 C 20.466831 0.482424 32.862702 -11.913446 32.862702 -27.205159 C 32.862702 -42.496871 20.466831 -54.892741 5.175119 -54.892741 C -10.116593 -54.892741 -22.512464 -42.496871 -22.512464 -27.205159 " transform="matrix(0.749998,0,0,-0.749998,78.239766,58.334473)" />
</g><g id="Tasbih_free_icon_1_0h4qMRT-16"><path style="fill:none;stroke-width:15;stroke-linecap:round;stroke-linejoin:round;stroke:rgb(0%,0%,0%);stroke-opacity:1;stroke-miterlimit:10;" d="M -0.000382574 -0.00126826 C 0.317327 -1.678357 0.483994 -3.407528 0.483994 -5.178367 C 0.483994 -20.470079 -11.911877 -32.86595 -27.203589 -32.86595 C -42.495301 -32.86595 -54.891172 -20.470079 -54.891172 -5.178367 C -54.891172 10.113345 -42.495301 22.509216 -27.203589 22.509216 " transform="matrix(0.749998,0,0,-0.749998,322.281537,74.858424)" />
</g><g id="Tasbih_free_icon_1_0h4qMRT-17"><path style="fill:none;stroke-width:15;stroke-linecap:round;stroke-linejoin:round;stroke:rgb(0%,0%,0%);stroke-opacity:1;stroke-miterlimit:10;" d="M 0.000288059 -0.000136461 C 0.000288059 15.291576 12.396158 27.687446 27.687871 27.687446 C 42.979583 27.687446 55.375454 15.291576 55.375454 -0.000136461 C 55.375454 -15.291849 42.979583 -27.687719 27.687871 -27.687719 C 12.396158 -27.687719 0.000288059 -15.291849 0.000288059 -0.000136461 Z M 0.000288059 -0.000136461 " transform="matrix(0.749998,0,0,-0.749998,250.074003,261.386616)" />
</g><g id="Tasbih_free_icon_1_0h4qMRT-18"><path style="fill:none;stroke-width:15;stroke-linecap:round;stroke-linejoin:round;stroke:rgb(0%,0%,0%);stroke-opacity:1;stroke-miterlimit:10;" d="M -0.00165226 -0.00141765 C -0.00165226 15.290295 12.394218 27.686165 27.68593 27.686165 C 42.977643 27.686165 55.373513 15.290295 55.373513 -0.00141765 C 55.373513 -15.29313 42.977643 -27.689 27.68593 -27.689 C 12.399426 -27.689 -0.00165226 -15.29313 -0.00165226 -0.00141765 Z M -0.00165226 -0.00141765 " transform="matrix(0.749998,0,0,-0.749998,212.766864,279.670812)" />
</g><g id="Tasbih_free_icon_1_0h4qMRT-19"><path style="fill:none;stroke-width:15;stroke-linecap:round;stroke-linejoin:round;stroke:rgb(0%,0%,0%);stroke-opacity:1;stroke-miterlimit:10;" d="M -0.00253627 0.000880919 C -0.00253627 9.474868 7.679778 17.151974 17.148557 17.151974 C 26.622543 17.151974 34.304858 9.474868 34.304858 0.000880919 C 34.304858 -9.473106 26.622543 -17.150212 17.148557 -17.150212 C 7.679778 -17.15542 -0.00253627 -9.473106 -0.00253627 0.000880919 Z M -0.00253627 0.000880919 " transform="matrix(0.749998,0,0,-0.749998,179.134715,319.770192)" />
</g><g id="Tasbih_free_icon_1_0h4qMRT-20"><path style="fill:none;stroke-width:15;stroke-linecap:round;stroke-linejoin:round;stroke:rgb(0%,0%,0%);stroke-opacity:1;stroke-miterlimit:10;" d="M 0.000765002 -0.00242035 L 0.000765002 -60.986978 " transform="matrix(0.749998,0,0,-0.749998,191.999426,332.634903)" />
</g><g id="Tasbih_free_icon_1_0h4qMRT-21"><path style="fill:none;stroke-width:15;stroke-linecap:round;stroke-linejoin:round;stroke:rgb(0%,0%,0%);stroke-opacity:1;stroke-miterlimit:10;" d="M 0.000303106 -0.00186366 L 30.271227 -0.00186366 " transform="matrix(0.749998,0,0,-0.749998,180.64821,349.779852)" />
</g><g id="Tasbih_free_icon_1_0h4qMRT-22"><path style="fill:none;stroke-width:15;stroke-linecap:round;stroke-linejoin:round;stroke:rgb(0%,0%,0%);stroke-opacity:1;stroke-miterlimit:10;" d="M 0.000765002 -0.00186366 L 17.151858 -29.517577 M 0.000765002 -0.00186366 L -17.150328 -29.517577 " transform="matrix(0.749998,0,0,-0.749998,191.999426,349.779852)" />
</g><g id="Tasbih_free_icon_1_0h4qMRT-23"><path style="fill:none;stroke-width:15;stroke-linecap:round;stroke-linejoin:round;stroke:rgb(0%,0%,0%);stroke-opacity:1;stroke-miterlimit:10;" d="M -0.000379952 0.0018485 C -0.000379952 15.293561 12.39549 27.689431 27.687203 27.689431 C 42.978915 27.689431 55.374786 15.293561 55.374786 0.0018485 C 55.374786 -15.289864 42.978915 -27.685734 27.687203 -27.685734 C 12.39549 -27.690943 -0.000379952 -15.295072 -0.000379952 0.0018485 Z M -0.000379952 0.0018485 " transform="matrix(0.749998,0,0,-0.749998,281.10966,233.790449)" />
</g></g>
</svg>