<svg xmlns="http://www.w3.org/2000/svg" width="384pt" height="384pt" viewBox="0 0 384 384" version="1.1" class="iconadda">
<g>
<g id="Alarm_Clock_free_icon_hki99Y0-0"><path style="fill:none;stroke-width:15;stroke-linecap:round;stroke-linejoin:round;stroke:rgb(0%,0%,0%);stroke-opacity:1;stroke-miterlimit:10;" d="M 440.369792 304.098958 C 440.369792 405.921875 357.822917 488.46875 256 488.46875 C 154.177083 488.46875 71.630208 405.921875 71.630208 304.098958 C 71.630208 202.270833 154.177083 119.723958 256 119.723958 C 357.822917 119.723958 440.369792 202.270833 440.369792 304.098958 " transform="matrix(0.75,0,0,0.75,0,0)" />
</g><g id="Alarm_Clock_free_icon_hki99Y0-1"><path style="fill:none;stroke-width:15;stroke-linecap:round;stroke-linejoin:round;stroke:rgb(0%,0%,0%);stroke-opacity:1;stroke-miterlimit:10;" d="M 369.666667 405.473958 C 393.697917 378.546875 408.302083 343.026042 408.302083 304.098958 C 408.302083 219.984375 340.114583 151.791667 255.994792 151.791667 C 171.880208 151.791667 103.6875 219.979167 103.6875 304.098958 C 103.692708 388.213542 171.885417 456.401042 256 456.401042 C 289.890625 456.401042 321.192708 445.333333 346.494792 426.614583 " transform="matrix(0.75,0,0,0.75,0,0)" />
</g><g id="Alarm_Clock_free_icon_hki99Y0-2"><path style="fill:none;stroke-width:15;stroke-linecap:round;stroke-linejoin:round;stroke:rgb(0%,0%,0%);stroke-opacity:1;stroke-miterlimit:10;" d="M 272.03125 304.098958 C 272.03125 312.953125 264.854167 320.130208 256 320.130208 C 247.145833 320.130208 239.96875 312.953125 239.96875 304.098958 C 239.96875 295.244792 247.145833 288.0625 256 288.0625 C 264.854167 288.0625 272.03125 295.244792 272.03125 304.098958 " transform="matrix(0.75,0,0,0.75,0,0)" />
</g><g id="Alarm_Clock_free_icon_hki99Y0-3"><path style="fill:none;stroke-width:15;stroke-linecap:round;stroke-linejoin:round;stroke:rgb(0%,0%,0%);stroke-opacity:1;stroke-miterlimit:10;" d="M 136.828125 445.8125 L 127.880208 495.026042 C 126.59375 502.109375 134.567708 507.166667 140.427083 502.984375 L 180.458333 474.390625 M 85.197917 105.53125 C 88.927083 99.473958 93.953125 94.328125 99.921875 90.458333 L 126.796875 72.96875 C 149.0625 58.479167 178.854167 64.78125 193.34375 87.046875 L 85.84375 157 C 81.645833 150.572917 79.057292 143.234375 78.291667 135.598958 " transform="matrix(0.75,0,0,0.75,0,0)" />
</g><g id="Alarm_Clock_free_icon_hki99Y0-4"><path style="fill:none;stroke-width:15;stroke-linecap:round;stroke-linejoin:round;stroke:rgb(0%,0%,0%);stroke-opacity:1;stroke-miterlimit:10;" d="M 99.921875 90.458333 L 91.177083 77.020833 C 86.348958 69.598958 88.447917 59.666667 95.869792 54.838542 C 103.291667 50.010417 113.223958 52.109375 118.052083 59.53125 L 126.796875 72.96875 M 156.166667 147.494792 L 139.59375 122.026042 M 375.171875 445.8125 L 384.119792 495.026042 C 385.40625 502.109375 377.432292 507.166667 371.572917 502.984375 L 331.541667 474.390625 M 318.661458 87.041667 L 426.161458 157 C 440.651042 134.734375 434.348958 104.942708 412.083333 90.453125 L 385.208333 72.963542 C 362.942708 58.473958 333.151042 64.776042 318.661458 87.041667 Z M 318.661458 87.041667 " transform="matrix(0.75,0,0,0.75,0,0)" />
</g><g id="Alarm_Clock_free_icon_hki99Y0-5"><path style="fill:none;stroke-width:15;stroke-linecap:round;stroke-linejoin:round;stroke:rgb(0%,0%,0%);stroke-opacity:1;stroke-miterlimit:10;" d="M 412.078125 90.458333 L 420.822917 77.020833 C 425.651042 69.598958 423.552083 59.666667 416.130208 54.838542 C 408.708333 50.010417 398.776042 52.109375 393.947917 59.53125 L 385.203125 72.96875 M 355.833333 147.494792 L 372.40625 122.026042 M 352.192708 63.614583 L 352.192708 53.848958 C 352.192708 35.21875 339.40625 18.869792 321.234375 14.765625 C 300.25 10.026042 278.421875 7.5 256 7.5 C 233.578125 7.5 211.75 10.026042 190.760417 14.760417 C 172.588542 18.864583 159.802083 35.21875 159.802083 53.84375 L 159.802083 63.609375 " transform="matrix(0.75,0,0,0.75,0,0)" />
</g><g id="Alarm_Clock_free_icon_hki99Y0-6"><path style="fill:none;stroke-width:15;stroke-linecap:round;stroke-linejoin:round;stroke:rgb(0%,0%,0%);stroke-opacity:1;stroke-miterlimit:10;" d="M 264.015625 87.661458 L 247.984375 87.661458 C 239.130208 87.661458 231.953125 80.484375 231.953125 71.630208 C 231.953125 62.776042 239.130208 55.598958 247.984375 55.598958 L 264.015625 55.598958 C 272.869792 55.598958 280.046875 62.776042 280.046875 71.630208 C 280.046875 80.484375 272.869792 87.661458 264.015625 87.661458 Z M 256 119.723958 L 256 87.661458 M 256 183.854167 L 256 199.885417 M 256 408.307292 L 256 424.338542 M 376.239583 304.098958 L 360.208333 304.098958 M 151.791667 304.098958 L 135.760417 304.098958 M 151.864583 243.973958 L 165.75 251.989583 M 346.25 356.203125 L 360.135417 364.21875 M 203.895833 394.34375 L 195.880208 408.229167 M 360.135417 243.973958 L 346.25 251.989583 M 165.75 356.203125 L 151.864583 364.21875 M 195.880208 199.963542 L 203.895833 213.848958 M 308.104167 394.34375 L 316.119792 408.229167 M 192.046875 267.171875 L 241.635417 295.802083 M 265.0625 288.401042 L 316.119792 199.963542 " transform="matrix(0.75,0,0,0.75,0,0)" />
</g></g>
</svg>